<svg id="svg" version="1.1" xmlns="http://www.w3.org/2000/svg" xmlns:xlink="http://www.w3.org/1999/xlink" width="400" height="400" viewBox="0, 0, 400,400"><g id="svgg"><path id="path0" d="M95.407 144.288 C 75.870 147.325,64.962 159.948,66.993 177.169 C 68.072 186.319,72.142 193.135,79.381 197.917 C 85.065 201.672,88.777 203.026,103.333 206.657 C 126.290 212.384,131.481 216.586,131.481 229.444 C 131.481 239.234,127.094 245.360,117.778 248.578 L 114.259 249.793 106.111 249.791 C 91.276 249.787,81.443 245.108,74.444 234.720 C 71.920 230.972,71.480 231.082,66.964 236.574 L 63.385 240.926 64.339 242.593 C 77.299 265.238,122.973 269.387,138.701 249.348 C 148.565 236.779,147.236 216.303,135.900 206.205 C 129.921 200.878,123.934 198.436,106.667 194.279 C 89.897 190.242,84.991 187.743,82.047 181.740 C 76.360 170.144,82.508 158.508,95.564 156.157 C 109.587 153.632,121.993 156.751,129.832 164.775 C 133.044 168.063,133.256 168.006,137.177 162.785 C 141.007 157.687,140.958 158.424,137.685 155.083 C 128.733 145.944,112.088 141.695,95.407 144.288 M214.444 202.749 L 214.444 260.370 221.108 260.370 L 227.772 260.370 227.868 237.870 L 227.963 215.370 246.296 215.169 L 264.630 214.968 268.333 213.952 C 285.029 209.375,293.932 196.695,293.212 178.519 C 292.519 161.025,283.145 149.925,265.926 146.209 C 262.634 145.499,260.864 145.439,238.426 145.289 L 214.444 145.129 214.444 202.749 M263.671 157.542 C 273.793 160.208,278.639 166.898,279.146 178.905 C 279.716 192.417,274.600 200.245,263.271 203.198 C 261.314 203.708,258.180 203.837,244.352 203.974 L 227.778 204.139 227.778 180.376 L 227.778 156.613 244.537 156.765 C 258.741 156.894,261.658 157.012,263.671 157.542 M172.220 243.309 C 167.249 244.821,164.840 249.914,166.482 255.442 C 168.600 262.573,180.676 263.323,184.140 256.538 C 188.079 248.826,180.765 240.710,172.220 243.309 M319.998 243.309 C 311.957 245.755,311.591 258.515,319.498 260.711 C 326.941 262.777,332.765 258.970,332.765 252.037 C 332.765 245.358,326.759 241.252,319.998 243.309 " stroke="none" fill="#050505" fill-rule="evenodd"></path><path id="path1" d="M0.000 200.000 L 0.000 400.000 200.000 400.000 L 400.000 400.000 400.000 200.000 L 400.000 0.000 200.000 0.000 L 0.000 0.000 0.000 200.000 M115.911 144.288 C 124.620 145.570,132.040 149.119,137.567 154.645 C 141.152 158.230,141.166 157.701,137.358 162.787 C 133.222 168.314,133.326 168.291,129.383 164.542 C 122.533 158.031,115.996 155.740,104.259 155.741 C 88.750 155.742,80.873 161.118,80.429 172.005 C 79.903 184.895,84.429 188.553,108.160 194.419 C 126.168 198.870,133.269 202.221,138.786 208.871 C 147.271 219.100,147.798 236.629,139.962 248.018 C 125.528 268.997,80.229 266.646,65.153 244.136 C 62.870 240.728,62.712 241.423,66.944 236.281 C 71.477 230.775,71.989 230.627,74.259 234.170 C 81.947 246.172,97.978 252.217,114.259 249.253 C 126.846 246.962,133.551 237.054,130.921 224.636 C 128.923 215.203,124.085 212.133,102.593 206.659 C 74.899 199.606,66.831 192.082,66.862 173.333 C 66.897 151.580,86.516 139.962,115.911 144.288 M267.037 146.196 C 285.435 150.712,295.015 164.532,293.316 184.106 C 291.843 201.064,281.276 212.192,263.982 214.997 C 261.311 215.430,256.983 215.553,244.355 215.554 L 228.154 215.556 228.058 238.056 L 227.963 260.556 221.019 260.656 L 214.074 260.757 214.074 202.952 L 214.074 145.147 238.981 145.285 C 262.722 145.417,264.036 145.459,267.037 146.196 M228.148 180.394 L 228.148 203.751 244.907 203.614 C 263.238 203.463,263.427 203.443,268.440 201.110 C 281.464 195.048,283.184 169.490,271.128 161.178 C 265.574 157.348,263.541 157.037,244.050 157.037 L 228.148 157.037 228.148 180.394 M178.197 242.999 C 187.374 244.842,187.949 258.362,178.961 260.975 C 171.813 263.053,165.868 259.093,165.847 252.241 C 165.827 245.510,171.089 241.572,178.197 242.999 M326.000 243.012 C 335.464 245.032,335.603 258.799,326.183 261.138 C 319.271 262.854,313.597 258.831,313.609 252.222 C 313.622 245.496,318.980 241.513,326.000 243.012 " stroke="none" fill="#fbfbfb" fill-rule="evenodd"></path><path id="path2" d="M101.764 143.595 C 102.224 143.684,102.891 143.681,103.245 143.588 C 103.599 143.495,103.222 143.423,102.407 143.427 C 101.593 143.431,101.303 143.507,101.764 143.595 M105.833 143.595 C 106.292 143.683,107.042 143.683,107.500 143.595 C 107.958 143.506,107.583 143.434,106.667 143.434 C 105.750 143.434,105.375 143.506,105.833 143.595 M214.255 202.963 C 214.255 234.843,214.298 247.884,214.352 231.944 C 214.405 216.005,214.405 189.921,214.352 173.981 C 214.298 158.042,214.255 171.083,214.255 202.963 M74.977 153.056 L 73.889 154.259 75.093 153.171 C 76.215 152.157,76.467 151.852,76.180 151.852 C 76.117 151.852,75.575 152.394,74.977 153.056 M282.963 154.190 C 282.963 154.254,283.505 154.795,284.167 155.394 L 285.370 156.481 284.283 155.278 C 283.269 154.156,282.963 153.904,282.963 154.190 M227.868 180.278 L 227.957 203.889 228.056 180.467 L 228.154 157.046 242.873 156.944 L 257.593 156.843 242.685 156.755 L 227.778 156.667 227.868 180.278 M133.148 167.037 L 132.037 167.320 133.034 167.364 C 133.582 167.388,134.133 167.241,134.259 167.037 C 134.385 166.833,134.437 166.686,134.374 166.710 C 134.311 166.735,133.759 166.882,133.148 167.037 M80.111 172.963 C 80.111 174.083,80.180 174.542,80.265 173.981 C 80.350 173.421,80.350 172.505,80.265 171.944 C 80.180 171.384,80.111 171.843,80.111 172.963 M293.439 179.815 C 293.442 180.833,293.514 181.206,293.599 180.643 C 293.684 180.080,293.682 179.247,293.594 178.791 C 293.506 178.336,293.436 178.796,293.439 179.815 M74.630 194.444 C 75.425 195.259,76.160 195.926,76.261 195.926 C 76.363 195.926,75.796 195.259,75.000 194.444 C 74.204 193.630,73.470 192.963,73.368 192.963 C 73.266 192.963,73.834 193.630,74.630 194.444 M136.852 207.037 C 137.647 207.852,138.382 208.519,138.484 208.519 C 138.586 208.519,138.018 207.852,137.222 207.037 C 136.427 206.222,135.692 205.556,135.590 205.556 C 135.489 205.556,136.056 206.222,136.852 207.037 M227.952 237.963 C 227.952 250.389,227.998 255.419,228.055 249.140 C 228.112 242.861,228.112 232.695,228.055 226.547 C 227.998 220.400,227.952 225.537,227.952 237.963 M136.458 251.944 L 135.370 253.148 136.574 252.060 C 137.696 251.046,137.948 250.741,137.662 250.741 C 137.598 250.741,137.056 251.282,136.458 251.944 " stroke="none" fill="#a4a4a4" fill-rule="evenodd"></path><path id="path3" d="M234.907 203.981 C 238.727 204.041,244.977 204.041,248.796 203.981 C 252.616 203.921,249.491 203.872,241.852 203.872 C 234.213 203.872,231.088 203.921,234.907 203.981 " stroke="none" fill="#7c7c7c" fill-rule="evenodd"></path><path id="path4" d="M102.134 155.447 C 102.595 155.536,103.261 155.532,103.615 155.440 C 103.970 155.347,103.593 155.274,102.778 155.279 C 101.963 155.283,101.673 155.359,102.134 155.447 M104.907 155.440 C 105.264 155.534,105.847 155.534,106.204 155.440 C 106.560 155.347,106.269 155.271,105.556 155.271 C 104.843 155.271,104.551 155.347,104.907 155.440 M256.019 203.959 C 256.375 204.052,256.958 204.052,257.315 203.959 C 257.671 203.866,257.380 203.790,256.667 203.790 C 255.954 203.790,255.662 203.866,256.019 203.959 M236.044 215.463 C 240.488 215.522,247.655 215.522,251.970 215.462 C 256.284 215.403,252.648 215.355,243.889 215.355 C 235.130 215.355,231.599 215.404,236.044 215.463 M145.286 228.519 C 145.286 229.435,145.358 229.810,145.447 229.352 C 145.535 228.894,145.535 228.144,145.447 227.685 C 145.358 227.227,145.286 227.602,145.286 228.519 M77.407 238.634 C 77.407 238.698,77.949 239.240,78.611 239.838 L 79.815 240.926 78.727 239.722 C 77.713 238.600,77.407 238.348,77.407 238.634 M217.685 260.646 C 219.569 260.714,222.653 260.714,224.537 260.646 C 226.421 260.579,224.880 260.524,221.111 260.524 C 217.343 260.524,215.801 260.579,217.685 260.646 M174.356 261.373 C 174.817 261.462,175.484 261.458,175.838 261.366 C 176.192 261.273,175.815 261.200,175.000 261.205 C 174.185 261.209,173.895 261.284,174.356 261.373 M322.134 261.373 C 322.595 261.462,323.261 261.458,323.615 261.366 C 323.970 261.273,323.593 261.200,322.778 261.205 C 321.963 261.209,321.673 261.284,322.134 261.373 " stroke="none" fill="#747474" fill-rule="evenodd"></path></g></svg>